<?xml version="1.0" encoding="utf-8"?>
<!-- Generator: Adobe Illustrator 16.0.0, SVG Export Plug-In . SVG Version: 6.00 Build 0)  -->
<!DOCTYPE svg PUBLIC "-//W3C//DTD SVG 1.1//EN" "http://www.w3.org/Graphics/SVG/1.1/DTD/svg11.dtd">
<svg version="1.1" id="Layer_1" xmlns="http://www.w3.org/2000/svg" xmlns:xlink="http://www.w3.org/1999/xlink" x="0px" y="0px"
	 width="304.36px" height="59.564px" viewBox="0 0 304.36 59.564" enable-background="new 0 0 304.36 59.564" xml:space="preserve">
<g>
	<path fill-rule="evenodd" clip-rule="evenodd" d="M10.18,34.202c3.378,0.012,6.754,0.029,10.119,0.32
		c0.546,0.051,1.066-0.089,1.191,0.834c0.13,0.955,2.535,1.104,3.319,0.207c0.229-0.255,0.3-0.543,0.733-0.456
		c2.169,0.43,4.382,0.696,6.414,1.657c0.48,0.229,0.938,0.496,1.074,1.121c-0.973,0.534-1.989,0.3-2.975,0.24
		c-5.679-0.344-11.335-1.088-17.039-1.008c-1.839,0.026-3.675,0.109-5.436,0.67c-2.193,0.697-2.554,1.958-1.158,3.806
		c1.123,1.486,2.613,2.56,4.12,3.606c3.61,2.501,7.499,4.523,11.329,6.647c0.57,0.317,1.135,0.644,1.884,1.064
		c-0.693,0.333-1.129,0.113-1.565-0.018c-7.612-2.316-14.681-5.76-21.242-10.266c-0.592-0.403-0.976-0.792-0.946-1.607
		c0.53-14.78,5.955-27.322,17.009-37.29c1.507-1.36,3.231-2.428,5.016-3.401c0.793-0.436,1.452-0.443,2.268-0.003
		c4.735,2.541,8.462,6.206,11.629,10.458c6.589,8.87,10.208,18.804,10.504,29.906c0.027,0.928-0.231,1.501-1.022,2.011
		c-2.229,1.43-4.477,2.83-6.792,4.12c-0.51,0.284-0.995,0.507-1.63,0.361c-3.85-0.878-6.804-1.521-9.147-2.311
		c-2.34-0.785-3.304-1.233-4.149-1.69c-0.531-0.288-1.305-0.99-1.139-1.738c0.143-0.632,0.774-0.839,1.36-0.916
		c0.901-0.137,1.179-0.211,2.089-0.249c4.199-0.17,8.382,0.332,12.581,0.364c0.912,0.006,1.833-0.012,2.744-0.109
		c0.81-0.092,0.964-0.549,0.417-1.172c-0.719-0.827-1.676-1.296-2.665-1.679c-4.202-1.635-8.607-2.456-13.038-3.142
		c-0.878-0.136-1.249-0.332-1.2-1.299c0.077-1.545-0.34-3.132,0.676-4.687c-1.853,0.697-1.845,0.694-2.008-1.109
		c-0.035-0.395,0.172-0.993-0.491-1.005c-0.569-0.01-0.342,0.575-0.472,0.898c-0.242,0.599,0.129,1.655-1.182,1.447
		c-0.27-0.044-0.559,0.362-0.228,0.757c0.258,0.302,0.348,0.652,0.381,1.056c0.245,3.304,0.251,3.266-3.065,3.126
		c-3.033-0.127-6.076-0.213-9.099,0.243C8.345,34,7.378,34.21,6.432,34.611C7.681,34.475,8.931,34.341,10.18,34.202z M30.533,28.19
		c0.221-0.051,0.442-0.102,0.663-0.151c0.498-0.193,0.983-0.407,1.01-1.044c0.003-0.099-0.125-0.291-0.196-0.294
		c-0.621-0.018-0.556,0.688-0.947,0.935c-0.039,0.021-0.055,0.074-0.085,0.112c-0.208,0.074-0.419,0.148-0.627,0.229
		c-0.199,0.083-0.395,0.169-0.592,0.252c-0.912,0.092-0.782-0.478-0.616-1.015c0.335-1.101,1.787-1.981,2.965-1.717
		c1.207,0.272,1.962-0.469,1.826-1.341c-0.283-1.795,0.259-2.61,2.03-2.679c0.212,1.201,0.332,2.37-0.426,3.465
		c-0.267,0.386-0.424,0.857-0.583,1.305c-0.098,0.267-0.146,0.597,0.208,0.741c0.274,0.116,0.459-0.092,0.569-0.302
		c0.469-0.866,1.234-1.712,0.667-2.785c-0.28-0.531-0.061-0.828,0.25-1.106c0.918-0.807,0.371-1.187-0.4-1.524
		c-0.221-0.522-0.019-0.926,0.329-1.312c0.417-0.457,0.43-0.955,0.036-1.433c-0.414-0.495-0.39-1.059-0.335-1.644
		c0.079-0.856-0.276-2.604-1.161-2.696c-0.771-0.077-1.302-0.461-1.39-1.22c-0.134-1.103-0.856-1.353-1.738-1.227
		c-0.973,0.139-1.663-0.099-2.21-0.946c-0.341-0.528-0.778-0.392-1.436-0.255c-1.213,0.255-2.538-0.02-3.814-0.088
		c-0.058,0-0.129-0.137-0.165-0.218c-0.4-0.94-0.879-0.869-1.468-0.156c-0.414,0.502-0.898,0.346-1.234-0.065
		c-0.836-1.019-1.548-0.667-2.254,0.131c-0.57,0.646-1.31,0.976-2.054,0.497c-1.292-0.823-1.829-0.214-2.193,0.947
		c-0.267,0.85-0.771,2.539-1.719,2.262c-0.848-0.25-1.249,0.18-1.49,0.902c-0.107,0.315-0.15,0.664-0.306,0.953
		c-0.85,1.582-1.829,3.122-1.12,5.062c0.13,0.354-0.136,0.591-0.436,0.813c-0.553,0.41-0.829,2.403-0.36,2.913
		c0.565,0.614,0.589,1.157,0.097,1.792c-0.328,0.424-0.478,0.99,0.069,1.228c0.791,0.344,1.175,1.012,1.737,1.533
		c0.651,0.605,1.76,0.718,2.389,1.558c0.087,0.115,0.54-0.006,0.81-0.077c0.384-0.095,0.817-0.211,1.12,0.032
		c0.98,0.78,1.631,0.182,2.542-0.593c-1.273,0.038-2.103-0.771-3.183-0.638c-0.345,0.038-0.624-0.146-0.628-0.445
		c-0.003-0.329,0.31-0.438,0.638-0.427c0.192,0.009,0.438,0.057,0.569-0.039c0.967-0.702,2.692-0.15,3.06-1.886
		c0.125-0.588,0.293-1.611,1.008-1.397c0.825,0.246,0.574,1.172,0.239,1.866c-0.062,0.133-0.095,0.272-0.154,0.406
		c-0.126,0.287-0.497,0.635-0.123,0.881c0.395,0.261,0.7-0.137,0.957-0.415c0.16-0.182,0.287-0.386,0.42-0.588
		c1.27-1.913,2.116-1.848,3.215,0.131c0.291,0.527,0.371,1.676,1.542,1.098c0.144,0.118,0.291,0.243,0.433,0.367
		c0.694,0.688,0.631,1.872,1.575,2.394h0.004c0.344,0.445,0.641,0.193,0.936-0.068c1.256-0.332,2.849,0.478,3.749-1.112
		c0.138-0.24,0.762-0.076,0.662-0.581c-0.104-0.531-0.589-0.561-1.029-0.566c-0.663-0.009-1.229,0.231-1.611,0.783
		c-0.644,0.943-1.507,1.267-2.603,0.99c0.003-1.222,1.031-1.61,1.799-2.212C30.158,28.4,30.348,28.291,30.533,28.19z"/>
	<path fill-rule="evenodd" clip-rule="evenodd" d="M19.411,47.206c0.842-0.137,1.19,0.35,1.619,0.61
		c2.22,1.355,4.472,2.658,6.942,3.488c0.898,0.3,1.014,0.899,1.019,1.661c0.006,0.528-0.141,1.063-0.689,1.112
		c-0.618,0.054-0.762-0.475-0.694-1.009c0.104-0.818-0.499-1.041-1.061-1.334C24.073,50.465,21.71,49.014,19.411,47.206z"/>
	<path fill-rule="evenodd" clip-rule="evenodd" d="M27.097,47.194c1.932,0.649,3.875,1.275,5.796,1.957
		c0.635,0.234,0.78,2.018,0.205,2.364c-0.57,0.338-0.681-0.211-0.641-0.543c0.159-1.222-0.684-1.489-1.566-1.821
		C29.563,48.65,28.223,48.169,27.097,47.194z"/>
	<path fill-rule="evenodd" clip-rule="evenodd" d="M17.444,43.952c-0.303,0.213-0.507,0.059-0.703-0.065
		c-0.943-0.605-2.447-1.009-2.076-2.382c0.349-1.275,1.807-1.166,3.19-1.258c-0.814,0.677-2.106,0.555-2.103,1.712
		C15.759,42.994,16.929,43.234,17.444,43.952z"/>
	<path fill-rule="evenodd" clip-rule="evenodd" d="M26.139,55.614c0.541,1.368,0.667,2.344,0.457,3.346
		c-0.065,0.318-0.296,0.671-0.681,0.594c-0.313-0.065-0.329-0.418-0.329-0.724C25.58,57.872,25.733,56.955,26.139,55.614z"/>
	<path fill-rule="evenodd" clip-rule="evenodd" d="M31.041,52.176c0.046,1.166,0.46,2.053-0.27,2.887
		C30.27,53.957,30.308,53.369,31.041,52.176z"/>
	<path fill-rule="evenodd" clip-rule="evenodd" d="M28.063,31.271c0.036-0.181,0.073-0.37,0.108-0.555
		c1.096,0.276,1.959-0.047,2.603-0.99c0.381-0.552,0.948-0.792,1.611-0.783c0.44,0.006,0.925,0.035,1.029,0.566
		c0.101,0.505-0.523,0.341-0.662,0.581c-0.9,1.59-2.493,0.78-3.749,1.112c-0.328-0.216-0.641-0.195-0.936,0.068H28.063z"/>
	<path fill-rule="evenodd" clip-rule="evenodd" d="M35.964,21.477c0.095-0.071,0.188-0.14,0.286-0.207
		c0.771,0.338,1.318,0.718,0.4,1.524c-0.312,0.278-0.531,0.575-0.25,1.106c0.566,1.073-0.199,1.919-0.667,2.785
		c-0.11,0.21-0.295,0.418-0.569,0.302c-0.354-0.145-0.306-0.475-0.208-0.741c0.159-0.447,0.316-0.919,0.583-1.305
		C36.296,23.847,36.176,22.678,35.964,21.477z"/>
	<path fill-rule="evenodd" clip-rule="evenodd" d="M30.978,27.748c0.03-0.038,0.046-0.092,0.085-0.112
		c0.391-0.246,0.326-0.952,0.947-0.935c0.071,0.003,0.199,0.195,0.196,0.294c-0.026,0.637-0.512,0.851-1.01,1.044
		C31.122,27.94,31.051,27.845,30.978,27.748z"/>
	<path fill-rule="evenodd" clip-rule="evenodd" d="M28.067,31.271c0.295-0.264,0.608-0.284,0.936-0.068
		C28.708,31.464,28.411,31.716,28.067,31.271z"/>
	<path fill-rule="evenodd" clip-rule="evenodd" d="M30.351,27.976c0.208-0.08,0.419-0.154,0.627-0.229
		c0.073,0.098,0.144,0.192,0.218,0.291c-0.221,0.05-0.442,0.101-0.663,0.151C30.471,28.116,30.409,28.044,30.351,27.976z"/>
	<path fill-rule="evenodd" clip-rule="evenodd" d="M29.759,28.228c0.197-0.083,0.393-0.169,0.592-0.252
		c0.058,0.068,0.12,0.14,0.182,0.214c-0.185,0.101-0.375,0.21-0.563,0.314C29.898,28.412,29.831,28.32,29.759,28.228z"/>
	<path fill-rule="evenodd" clip-rule="evenodd" d="M26.488,28.877c-0.143-0.124-0.29-0.249-0.433-0.367
		c0.068-0.08,0.133-0.157,0.202-0.237c0.203,0.089,0.405,0.178,0.602,0.27C26.735,28.652,26.612,28.765,26.488,28.877z"/>
	<path fill-rule="evenodd" clip-rule="evenodd" d="M33.358,23.684c-0.293,0.478-0.32,1.513-1.543,1.044
		c-0.214-0.083-0.464-0.083-0.699-0.122c-0.381-0.062-0.958,0.472-1.117-0.142c-0.16-0.635,0.485-0.68,0.954-0.777
		c0.485-0.098,0.891-0.338,1.204-0.729c0.188-0.234,0.426-0.448,0.733-0.273C33.179,22.853,33.427,23.1,33.358,23.684z"/>
	<path fill-rule="evenodd" clip-rule="evenodd" d="M34.076,21.127c-0.286,0-0.725-0.406-0.351-0.638
		c0.958-0.603,0.59-1.62,1.007-2.361c0.139-0.252,0.208-0.603,0.516-0.629c0.313-0.029,0.462,0.303,0.58,0.549
		C36.274,18.983,35.207,21.071,34.076,21.127z"/>
	<path fill-rule="evenodd" clip-rule="evenodd" d="M26.858,28.542c-0.197-0.092-0.399-0.181-0.602-0.27
		c-0.165-0.193-0.279-0.579-0.08-0.605c0.82-0.128,1.529-0.32,1.832-1.207c0.016-0.045,0.384-0.048,0.501,0.044
		c0.309,0.234,0.341,0.632,0.167,0.914C28.269,28.074,27.795,28.708,26.858,28.542z"/>
	<path fill-rule="evenodd" clip-rule="evenodd" d="M30.91,21.825c-0.439-0.051-0.767-0.25-0.654-0.419
		c0.433-0.626,0.61-1.51,1.318-1.851c0.354-0.166,0.635,0.418,0.556,0.789C31.972,21.088,31.302,21.417,30.91,21.825z"/>
	<path fill-rule="evenodd" clip-rule="evenodd" d="M28.231,24.708c-0.109,0.463-0.458,0.617-0.853,0.607
		c-0.374-0.009-0.614-0.287-0.617-0.649c-0.004-0.383,0.279-0.599,0.654-0.584C27.819,24.096,28.128,24.29,28.231,24.708z"/>
</g>
<g>
	<path d="M79.567,41.519c0,0.387-0.242,0.628-0.628,0.628h-3.381c-0.338,0-0.58-0.145-0.724-0.435l-0.773-1.159
		c-0.29-0.435-0.628-0.579-1.207,0c-1.739,1.546-3.864,2.125-6.134,2.125c-6.471,0-10.431-4.781-10.431-12.411
		c0-7.583,4.25-12.363,11.252-12.363c1.208,0,2.27,0.145,3.139,0.579l1.255,0.531V7.617c0-0.387,0.242-0.628,0.628-0.628h6.375
		c0.386,0,0.628,0.241,0.628,0.628V41.519z M71.067,25.292c-0.821-0.338-1.98-0.58-2.994-0.58c-2.705,0-4.298,2.077-4.298,5.555
		c0.048,3.477,1.642,5.65,4.395,5.65c2.463,0,3.863-1.933,3.863-4.589v-5.602L71.067,25.292z"/>
	<path d="M105.066,30.267c0,7.63-4.491,12.411-11.735,12.411c-7.292,0-11.784-4.781-11.784-12.411
		c0-7.534,4.491-12.363,11.784-12.363C100.575,17.904,105.066,22.733,105.066,30.267z M89.033,30.267c0,3.525,1.642,5.65,4.298,5.65
		c2.608,0,4.25-2.125,4.25-5.65c0-3.478-1.642-5.555-4.25-5.555C90.675,24.712,89.033,26.79,89.033,30.267z"/>
	<path d="M138.534,31.087c-1.352,4.878-1.979,7.147-2.752,10.528c-0.098,0.338-0.338,0.531-0.725,0.531h-7.92
		c-0.387,0-0.629-0.193-0.725-0.531l-1.015-4.153l-0.531-1.98c-0.29-1.11-0.772-3.235-1.062-4.442c-0.146-0.628-0.531-0.628-0.677,0
		c-0.29,1.256-0.772,3.477-1.015,4.442l-0.531,1.98c-0.434,1.594-0.725,2.801-1.014,4.153c-0.097,0.338-0.338,0.531-0.725,0.531
		h-7.92c-0.387,0-0.628-0.193-0.725-0.531c-0.772-3.381-1.4-5.554-2.753-10.528l-3.332-11.929c-0.097-0.435,0.097-0.724,0.531-0.724
		h6.423c0.387,0,0.628,0.192,0.725,0.53l1.111,4.637c0.917,3.912,1.448,6.472,2.027,9.756c0.098,0.627,0.773,0.627,0.918,0
		c0.725-3.284,1.835-7.052,2.897-11.06l0.87-3.333c0.096-0.338,0.338-0.53,0.724-0.53h4.298c0.338,0,0.58,0.192,0.677,0.53
		l0.917,3.333c1.063,3.863,2.174,7.775,2.898,11.06c0.145,0.627,0.772,0.627,0.869,0c0.531-3.284,1.014-5.603,2.028-9.756
		l1.11-4.637c0.097-0.338,0.338-0.53,0.725-0.53h6.424c0.434,0,0.627,0.289,0.531,0.724L138.534,31.087z"/>
	<path d="M149.159,19.883c0.482,0.725,0.773,0.676,1.497,0.049c1.933-1.643,4.153-2.028,5.603-2.028
		c5.698,0,9.176,3.283,9.176,8.934v14.682c0,0.387-0.241,0.628-0.628,0.628h-6.423c-0.387,0-0.628-0.241-0.628-0.628V27.803
		c0-1.979-1.015-3.091-2.704-3.091c-2.318,0-3.623,1.69-3.623,4.927v11.88c0,0.387-0.241,0.628-0.627,0.628h-6.424
		c-0.387,0-0.627-0.241-0.627-0.628V19.062c0-0.386,0.24-0.627,0.627-0.627h3.43c0.338,0,0.579,0.145,0.725,0.435L149.159,19.883z"
		/>
	<path d="M174.609,32.488c-4.685-1.063-6.81-3.188-6.81-6.857c0-4.878,3.478-7.727,9.418-7.727c2.221,0,4.539,0.386,6.277,0.772
		l2.415,0.579c0.387,0.097,0.58,0.387,0.435,0.772l-1.448,5.023c-0.097,0.386-0.339,0.531-0.725,0.435l-2.463-0.58
		c-1.305-0.289-3.333-0.482-4.491-0.482c-1.256,0-1.98,0.435-1.98,1.207c0,0.483,0.435,1.015,1.256,1.256l4.104,0.966
		c4.637,1.11,6.713,3.284,6.713,7.051c0,4.878-3.477,7.775-9.369,7.775c-2.125,0-4.685-0.193-7.389-0.869l-2.56-0.628
		c-0.387-0.097-0.579-0.387-0.435-0.772l1.449-5.119c0.096-0.387,0.338-0.531,0.724-0.435l2.271,0.579
		c2.076,0.531,5.022,0.772,5.939,0.772c1.208,0,1.884-0.482,1.884-1.304c0-0.628-0.435-1.207-1.4-1.449L174.609,32.488z"/>
	<path d="M203.828,18.435c0.386,0,0.628,0.241,0.628,0.627v5.458c0,0.386-0.242,0.627-0.628,0.627h-5.457v8.79
		c0,1.256,0.482,1.98,1.255,1.98c0.435,0,0.821-0.049,1.208-0.193c0.386-0.146,0.676-0.097,0.869,0.289l2.27,4.637
		c0.146,0.338,0.097,0.676-0.193,0.869c-1.158,0.772-2.704,1.159-4.153,1.159c-5.602,0-8.886-3.235-8.886-8.741v-8.79h-2.512
		c-0.386,0-0.627-0.241-0.627-0.627v-5.458c0-0.386,0.241-0.627,0.627-0.627h2.512V13.17c0-0.338,0.145-0.579,0.531-0.725
		l6.375-2.125c0.435-0.145,0.725,0.049,0.725,0.531v7.583H203.828z"/>
	<path d="M221.889,24.085c0,0.435-0.193,0.627-0.628,0.627c-5.313,0.242-6.954,3.236-6.954,12.895v3.912
		c0,0.387-0.241,0.628-0.628,0.628h-6.423c-0.387,0-0.628-0.241-0.628-0.628V19.062c0-0.386,0.241-0.627,0.628-0.627h3.429
		c0.338,0,0.579,0.145,0.725,0.435l1.256,1.932c0.435,0.628,0.627,0.772,1.207,0.145c2.076-2.173,4.008-2.946,7.389-3.042
		c0.387,0,0.628,0.241,0.628,0.627V24.085z"/>
	<path d="M239.903,42.147c-1.69,0.387-3.333,0.531-4.589,0.531c-7.92,0-12.218-4.781-12.218-12.363
		c0-7.631,4.395-12.411,11.977-12.411c6.037,0,9.756,3.187,9.756,8.161c0,3.863-2.705,6.085-8.259,6.857l-5.65,0.821
		c0.918,1.69,2.125,2.415,4.395,2.415c1.015,0,2.415-0.193,3.092-0.338l2.897-0.628c0.386-0.097,0.628,0.048,0.724,0.435
		l1.353,5.022c0.097,0.435-0.097,0.676-0.482,0.772L239.903,42.147z M235.459,28.045c1.497-0.146,2.222-0.821,2.222-1.884
		c0-1.159-0.966-1.738-2.897-1.738c-2.077,0-4.202,1.352-4.347,4.395L235.459,28.045z"/>
	<path d="M249.561,18.676c1.787-0.483,3.478-0.772,5.313-0.772c7.341,0,11.639,3.477,11.639,9.368v14.247
		c0,0.387-0.241,0.628-0.628,0.628h-3.622c-0.386,0-0.579-0.145-0.772-0.435l-0.435-0.869c-0.29-0.58-0.725-0.677-1.545,0
		c-1.256,1.11-3.188,1.835-5.216,1.835c-5.747,0-9.176-2.85-9.176-7.728c0-4.491,3.573-7.147,9.562-7.147h4.54v-0.096
		c-0.193-2.077-1.98-3.284-4.732-3.284c-0.967,0-2.077,0.193-3.14,0.482l-1.835,0.531c-0.387,0.097-0.628-0.048-0.772-0.435
		l-1.497-5.022c-0.146-0.435,0-0.676,0.435-0.772L249.561,18.676z M254.68,32.584c-1.4,0-2.414,0.773-2.414,1.836
		c0,1.352,1.014,2.124,2.752,2.124c2.512,0,3.912-1.207,4.202-3.863v-0.097H254.68z"/>
	<path d="M274.625,19.883c0.482,0.725,0.772,0.676,1.545,0c1.884-1.545,3.912-1.979,5.313-1.979c2.028,0,4.298,0.724,5.844,2.173
		c0.917,0.821,1.448,0.579,2.27-0.049c2.27-1.835,4.105-2.124,5.506-2.124c5.795,0,8.982,3.283,8.982,8.934v14.682
		c0,0.387-0.241,0.628-0.628,0.628h-6.375c-0.386,0-0.628-0.241-0.628-0.628V27.803c0-1.979-0.724-3.091-2.56-3.091
		c-2.221,0-3.429,1.69-3.429,4.927v11.88c0,0.387-0.241,0.628-0.628,0.628h-6.374c-0.387,0-0.628-0.241-0.628-0.628V27.708
		c0-1.884-0.821-2.995-2.56-2.995c-2.318,0-3.381,1.69-3.381,4.927v11.88c0,0.387-0.241,0.628-0.628,0.628h-6.423
		c-0.387,0-0.628-0.241-0.628-0.628V19.062c0-0.386,0.241-0.627,0.628-0.627h3.429c0.338,0,0.579,0.145,0.725,0.435L274.625,19.883z
		"/>
</g>
</svg>
