<svg height="479pt" viewBox="-28 0 479 479.92" width="479pt" xmlns="http://www.w3.org/2000/svg"><path d="m398.140625 90.320312c-9.984375-3.628906-20.996094-3.136718-30.617187 1.367188-9.621094 4.5-17.054688 12.644531-20.664063 22.632812l-5.4375 15.039063-76.960937 210.402344v2.957031l1.117187 34.402344 1.601563 51.679687c.101562 3.277344 2.195312 6.164063 5.28125 7.277344.871093.320313 1.792968.480469 2.71875.480469 2.257812-.003906 4.40625-.960938 5.921874-2.636719l34.476563-38.5625 22.882813-25.597656.71875-.882813c.023437-.15625.023437-.320312 0-.480468.234374-.347657.421874-.722657.558593-1.117188l42.242188-116.160156c1.523437-4.152344-.605469-8.757813-4.761719-10.28125-4.152344-1.523438-8.753906.605468-10.277344 4.761718l-39.28125 108.558594-6.160156-2.238281-9.039062-3.28125 71.117187-195.441406 15.042969 5.519531-18.960938 52.5625c-1.066406 2.707031-.578125 5.785156 1.277344 8.027344 1.855469 2.246094 4.78125 3.304687 7.644531 2.765625 2.863281-.539063 5.207031-2.589844 6.117188-5.355469l21.761719-59.917969 5.519531-15.039062c3.683593-9.984375 3.242187-21.019531-1.234375-30.675781-4.472656-9.652344-12.609375-17.125-22.605469-20.765626zm-36.242187 29.601563c4.449218-12.4375 18.105468-18.941406 30.5625-14.5625 12.433593 4.445313 18.941406 18.101563 14.558593 30.5625l-2.71875 7.519531-45.121093-16zm-79.519532 288.476563-.640625-19.917969 13.921875 5.121093zm24.722656-27.679688-25.921874-9.4375-.71875-17.203125 6.320312 2.320313 32 11.441406zm-9.523437-37.519531-15.039063-5.4375 71.121094-195.523438 14.398438 5.28125h.640625zm0 0"/><path d="m240.460938 63.921875h72c4.417968 0 8 3.578125 8 8v24.476563c0 4.417968 3.582031 8 8 8 4.417968 0 8-3.582032 8-8v-24.476563c0-13.257813-10.746094-24-24-24h-72c-4.417969 0-8 3.578125-8 8 0 4.417969 3.582031 8 8 8zm0 0"/><path d="m328.460938 411.921875c-4.417969 0-8 3.578125-8 8v36c0 4.417969-3.582032 8-8 8h-288c-4.417969 0-8-3.582031-8-8v-384c0-4.421875 3.582031-8 8-8h64c4.417968 0 8-3.582031 8-8 0-4.421875-3.582032-8-8-8h-64c-13.253907 0-24 10.742187-24 24v384c0 13.253906 10.746093 24 24 24h288c13.253906 0 24-10.746094 24-24v-36c0-4.421875-3.582032-8-8-8zm0 0"/><path d="m104.460938 116.640625-29.679688 29.597656c-1.023438 1.042969-1.742188 2.34375-2.082031 3.761719l-24 96c-.605469 2.394531-.074219 4.933594 1.441406 6.878906 1.527344 1.933594 3.855469 3.054688 6.320313 3.042969h24c4.417968 0 8-3.582031 8-8 0-4.421875-3.582032-8-8-8h-13.761719l20.960937-83.921875 16.800782-16.800781v100.722656c.003906 5.707031 3.054687 10.984375 8 13.839844v40.476562c-.042969 11.558594 2.214843 23.007813 6.640624 33.683594h-14.640624c-4.417969 0-8 3.578125-8 8 0 4.417969 3.582031 8 8 8h23.359374c.320313.523437.664063 1.03125 1.039063 1.519531l25.121094 35.117188c1.492187 2.097656 3.90625 3.347656 6.480469 3.363281 2.601562.011719 5.050781-1.242187 6.558593-3.363281l25.441407-35.917969c10.050781-14.292969 15.621093-31.253906 16-48.71875v-42.160156c4.945312-2.855469 7.992187-8.132813 8-13.839844v-100.722656l16.800781 16.800781 20.957031 83.921875h-13.757812c-4.417969 0-8 3.578125-8 8 0 4.417969 3.582031 8 8 8h24c2.460937.011719 4.792968-1.109375 6.320312-3.042969 1.515625-1.945312 2.046875-4.484375 1.4375-6.878906l-24-96c-.335938-1.417969-1.054688-2.71875-2.078125-3.761719l-29.679687-29.597656v-4.71875h16c4.417968 0 8-3.582031 8-8 0-4.421875-3.582032-8-8-8h-16v-25.601563c-.25-1.132812-.742188-2.195312-1.441407-3.121093l-48-64c-1.511719-2.011719-3.882812-3.199219-6.398437-3.199219-2.519532 0-4.890625 1.1875-6.402344 3.199219l-48 64c-.699219.925781-1.191406 1.988281-1.4375 3.121093v1.601563zm88 155.28125h-64v-16h64zm0 23.277344c-.292969 14.34375-4.859376 28.273437-13.121094 40l-18.878906 26.878906-13.039063-18.15625h13.039063c4.417968 0 8-3.582031 8-8 0-4.421875-3.582032-8-8-8h-24c-5.367188-10.410156-8.113282-21.972656-8-33.683594v-6.316406h64zm-8-183.277344h16v128h-80v-160h80v16h-16c-4.417969 0-8 3.578125-8 8 0 4.417969 3.582031 8 8 8zm-24-90.640625 32 42.640625h-64zm0 0"/><path d="m168.460938 143.921875c0 4.417969-3.582032 8-8 8-4.417969 0-8-3.582031-8-8 0-4.421875 3.582031-8 8-8 4.417968 0 8-3.582031 8-8 0-4.421875-3.582032-8-8-8-13.253907 0-24 10.742187-24 24 0 13.253906 10.746093 24 24 24 13.253906 0 24-10.746094 24-24 0-4.421875-3.582032-8-8-8-4.417969 0-8 3.578125-8 8zm0 0"/><path d="m176.460938 183.921875h-32c-4.417969 0-8 3.578125-8 8 0 4.417969 3.582031 8 8 8h32c4.417968 0 8-3.582031 8-8 0-4.421875-3.582032-8-8-8zm0 0"/><path d="m32.460938 343.921875c0 8.835937 7.164062 16 16 16h16c8.835937 0 16-7.164063 16-16v-16c0-8.839844-7.164063-16-16-16h-16c-8.835938 0-16 7.160156-16 16zm16-16h16v16h-16zm0 0"/><path d="m256.460938 103.921875c0 13.253906 10.746093 24 24 24 13.253906 0 24-10.746094 24-24 0-13.257813-10.746094-24-24-24-13.253907 0-24 10.742187-24 24zm32 0c0 4.417969-3.582032 8-8 8-4.417969 0-8-3.582031-8-8 0-4.421875 3.582031-8 8-8 4.417968 0 8 3.578125 8 8zm0 0"/><path d="m40.460938 111.921875h32c4.417968 0 8-3.582031 8-8 0-4.421875-3.582032-8-8-8h-32c-4.417969 0-8 3.578125-8 8 0 4.417969 3.582031 8 8 8zm0 0"/><path d="m40.460938 143.921875h16c4.417968 0 8-3.582031 8-8 0-4.421875-3.582032-8-8-8h-16c-4.417969 0-8 3.578125-8 8 0 4.417969 3.582031 8 8 8zm0 0"/><path d="m200.460938 367.921875v16c0 8.835937 7.164062 16 16 16h16c8.835937 0 16-7.164063 16-16v-16c0-8.839844-7.164063-16-16-16h-16c-8.835938 0-16 7.160156-16 16zm32 16h-16v-16h16zm0 0"/><path d="m240.460938 327.921875v-48c0-4.421875-3.582032-8-8-8-4.417969 0-8 3.578125-8 8v48c0 4.417969 3.582031 8 8 8 4.417968 0 8-3.582031 8-8zm0 0"/><path d="m152.460938 415.921875c4.417968 0 8-3.582031 8-8 0-4.421875-3.582032-8-8-8h-112c-4.417969 0-8 3.578125-8 8v32c0 4.417969 3.582031 8 8 8h112c4.417968 0 8-3.582031 8-8 0-4.421875-3.582032-8-8-8h-104v-16zm0 0"/></svg>